<svg xmlns="http://www.w3.org/2000/svg" viewBox="0 0 100 100" width="100" height="100">
  <!-- Background circle -->
  <circle cx="50" cy="50" r="48" fill="#0a0a0a" stroke="#c8a84e" stroke-width="2"/>
  
  <!-- Wheat/Grain symbol (agriculture) -->
  <g fill="#c8a84e">
    <!-- Center stem -->
    <rect x="48" y="35" width="4" height="40" rx="1"/>
    
    <!-- Wheat grains - left side -->
    <ellipse cx="42" cy="40" rx="4" ry="6" transform="rotate(-20 42 40)"/>
    <ellipse cx="40" cy="48" rx="4" ry="6" transform="rotate(-25 40 48)"/>
    <ellipse cx="41" cy="56" rx="4" ry="6" transform="rotate(-20 41 56)"/>
    <ellipse cx="43" cy="64" rx="4" ry="6" transform="rotate(-15 43 64)"/>
    
    <!-- Wheat grains - right side -->
    <ellipse cx="58" cy="40" rx="4" ry="6" transform="rotate(20 58 40)"/>
    <ellipse cx="60" cy="48" rx="4" ry="6" transform="rotate(25 60 48)"/>
    <ellipse cx="59" cy="56" rx="4" ry="6" transform="rotate(20 59 56)"/>
    <ellipse cx="57" cy="64" rx="4" ry="6" transform="rotate(15 57 64)"/>
  </g>
  
  <!-- Letter F stylized -->
  <g fill="#f5f5f0" font-family="serif" font-weight="bold" font-size="28">
    <text x="50" y="88" text-anchor="middle">F</text>
  </g>
</svg>
